<?xml version="1.0" standalone="no"?><!DOCTYPE svg PUBLIC "-//W3C//DTD SVG 1.1//EN" "http://www.w3.org/Graphics/SVG/1.1/DTD/svg11.dtd"><svg t="1521211016201" class="icon" style="" viewBox="0 0 1024 1024" version="1.1" xmlns="http://www.w3.org/2000/svg" p-id="2478" xmlns:xlink="http://www.w3.org/1999/xlink" width="200" height="200"><defs><style type="text/css"></style></defs><path d="M512 832c177.066667 0 320-142.933333 320-320S689.066667 192 512 192 192 334.933333 192 512s142.933333 320 320 320z m-221.866667-192H384c10.666667 40.533333 25.6 78.933333 44.8 113.066667-57.6-19.2-106.666667-59.733333-138.666667-113.066667zM512 765.866667c-25.6-38.4-46.933333-81.066667-61.866667-125.866667h121.6c-12.8 44.8-34.133333 87.466667-59.733333 125.866667z m83.2-12.8c19.2-36.266667 34.133333-74.666667 44.8-113.066667h93.866667c-32 53.333333-81.066667 93.866667-138.666667 113.066667zM759.466667 448c4.266667 21.333333 8.533333 42.666667 8.533333 64s-2.133333 42.666667-8.533333 64h-108.8c2.133333-21.333333 4.266667-42.666667 4.266666-64s-2.133333-42.666667-4.266666-64h108.8z m-25.6-64H640c-10.666667-40.533333-25.6-78.933333-44.8-113.066667 57.6 19.2 106.666667 59.733333 138.666667 113.066667zM512 258.133333c27.733333 38.4 46.933333 81.066667 61.866667 125.866667h-121.6c12.8-44.8 32-87.466667 59.733333-125.866667zM437.333333 448h149.333334c2.133333 21.333333 4.266667 42.666667 4.266666 64s-2.133333 42.666667-4.266666 64h-149.333334c-2.133333-21.333333-4.266667-42.666667-4.266666-64s0-42.666667 4.266666-64z m-8.533333-177.066667c-19.2 36.266667-34.133333 74.666667-44.8 113.066667h-93.866667c32-53.333333 81.066667-93.866667 138.666667-113.066667zM256 512c0-21.333333 2.133333-42.666667 8.533333-64h108.8c-2.133333 21.333333-4.266667 42.666667-4.266666 64s2.133333 42.666667 4.266666 64h-108.8c-6.4-21.333333-8.533333-42.666667-8.533333-64z" fill="#00C1DE" p-id="2479"></path><path d="M512 44.8c-115.2 0-224 42.666667-309.333333 117.333333-23.466667 21.333333-44.8 44.8-64 70.4-32 0-57.6 27.733333-57.6 59.733334 0 32 25.6 59.733333 59.733333 59.733333s59.733333-25.6 59.733333-59.733333c0-8.533333-2.133333-17.066667-6.4-25.6 14.933333-19.2 34.133333-38.4 53.333334-55.466667 74.666667-66.133333 168.533333-100.266667 266.666666-100.266667C736 110.933333 917.333333 292.266667 917.333333 514.133333 917.333333 736 736 917.333333 514.133333 917.333333c-115.2 0-226.133333-49.066667-302.933333-136.533333l-25.6-32c2.133333-4.266667 2.133333-10.666667 2.133333-14.933333 0-32-25.6-59.733333-59.733333-59.733334s-59.733333 25.6-59.733333 59.733334 25.6 59.733333 59.733333 59.733333h8.533333l25.6 32c89.6 100.266667 215.466667 157.866667 349.866667 157.866667 258.133333 0 467.2-209.066667 467.2-467.2 0-262.4-209.066667-471.466667-467.2-471.466667z" fill="#00C1DE" p-id="2480"></path></svg>